<svg width="334" height="118" viewBox="0 0 334 118" fill="none" xmlns="http://www.w3.org/2000/svg">
<g clip-path="url(#clip0_9_2)">
<rect width="334" height="118" rx="30" fill="#72A8DB"/>
<path d="M97 48C129.5 56.5 184 78.5 184 78.5L185.5 122H-27.5V43.5C-27.5 43.5 -11.5 39 18 38C47.5 37 64.5 39.5 97 48Z" fill="#1D91BC" stroke="black"/>
<path d="M249.5 42C298.5 39 339 46 339 46V130.5L99.5 129C99.5 129 129 94.5 147 83C165 71.5 200.5 45 249.5 42Z" fill="#18264A" stroke="black"/>
<path d="M278 64.1529C328.5 71.1529 341.2 95.4529 342 96.6529V130.5H-17.5V103.5C-17.5 103.5 6.00022 90.6529 31.5002 88.1529C57.0002 85.6528 87.5002 92.1529 131.5 88.1529C175.5 84.1528 227.5 57.1529 278 64.1529Z" fill="white" stroke="black"/>
<path d="M16.8807 21V13.7273H21.2699V14.5085H17.7614V16.9659H21.0426V17.7472H17.7614V20.2188H21.3267V21H16.8807ZM23.3686 15.5455L24.6754 17.7756L25.9822 15.5455H26.9482L25.1868 18.2727L26.9482 21H25.9822L24.6754 18.8835L23.3686 21H22.4027L24.1357 18.2727L22.4027 15.5455H23.3686ZM28.144 23.0455V15.5455H28.9537V16.4119H29.0531C29.1146 16.3172 29.1999 16.1965 29.3088 16.0497C29.42 15.9006 29.5787 15.768 29.7846 15.652C29.993 15.5336 30.2747 15.4744 30.6298 15.4744C31.0891 15.4744 31.4939 15.5893 31.8443 15.8189C32.1947 16.0485 32.4681 16.3741 32.6646 16.7955C32.8611 17.2169 32.9593 17.714 32.9593 18.2869C32.9593 18.8646 32.8611 19.3653 32.6646 19.7891C32.4681 20.2105 32.1958 20.5372 31.8478 20.7692C31.4998 20.9988 31.0985 21.1136 30.644 21.1136C30.2936 21.1136 30.0131 21.0556 29.8024 20.9396C29.5917 20.8213 29.4295 20.6875 29.3159 20.5384C29.2022 20.3868 29.1146 20.2614 29.0531 20.1619H28.9821V23.0455H28.144ZM28.9679 18.2727C28.9679 18.6847 29.0282 19.0481 29.149 19.3629C29.2697 19.6754 29.4461 19.9205 29.6781 20.098C29.9101 20.2732 30.1942 20.3608 30.5304 20.3608C30.8807 20.3608 31.1731 20.2685 31.4075 20.0838C31.6442 19.8968 31.8218 19.6458 31.9402 19.331C32.0609 19.0137 32.1213 18.661 32.1213 18.2727C32.1213 17.8892 32.0621 17.5436 31.9437 17.2358C31.8277 16.9257 31.6513 16.6806 31.4146 16.5007C31.1802 16.3184 30.8855 16.2273 30.5304 16.2273C30.1895 16.2273 29.903 16.3137 29.671 16.4865C29.439 16.657 29.2638 16.8961 29.1454 17.2038C29.027 17.5092 28.9679 17.8655 28.9679 18.2727ZM35.0758 13.7273V21H34.2377V13.7273H35.0758ZM38.8267 21.1136C38.3343 21.1136 37.9022 20.9964 37.5305 20.7621C37.1612 20.5277 36.8724 20.1998 36.6641 19.7784C36.4581 19.357 36.3551 18.8646 36.3551 18.3011C36.3551 17.733 36.4581 17.237 36.6641 16.8132C36.8724 16.3894 37.1612 16.0604 37.5305 15.826C37.9022 15.5916 38.3343 15.4744 38.8267 15.4744C39.3191 15.4744 39.75 15.5916 40.1193 15.826C40.491 16.0604 40.7798 16.3894 40.9858 16.8132C41.1941 17.237 41.2983 17.733 41.2983 18.3011C41.2983 18.8646 41.1941 19.357 40.9858 19.7784C40.7798 20.1998 40.491 20.5277 40.1193 20.7621C39.75 20.9964 39.3191 21.1136 38.8267 21.1136ZM38.8267 20.3608C39.2008 20.3608 39.5085 20.2649 39.75 20.0732C39.9915 19.8814 40.1702 19.6293 40.2862 19.3168C40.4022 19.0043 40.4602 18.6657 40.4602 18.3011C40.4602 17.9366 40.4022 17.5968 40.2862 17.282C40.1702 16.9671 39.9915 16.7126 39.75 16.5185C39.5085 16.3243 39.2008 16.2273 38.8267 16.2273C38.4527 16.2273 38.1449 16.3243 37.9034 16.5185C37.6619 16.7126 37.4832 16.9671 37.3672 17.282C37.2512 17.5968 37.1932 17.9366 37.1932 18.3011C37.1932 18.6657 37.2512 19.0043 37.3672 19.3168C37.4832 19.6293 37.6619 19.8814 37.9034 20.0732C38.1449 20.2649 38.4527 20.3608 38.8267 20.3608ZM42.5776 21V15.5455H43.3873V16.3693H43.4441C43.5435 16.0994 43.7234 15.8804 43.9838 15.7124C44.2443 15.5443 44.5378 15.4602 44.8645 15.4602C44.9261 15.4602 45.003 15.4614 45.0953 15.4638C45.1877 15.4661 45.2575 15.4697 45.3049 15.4744V16.3267C45.2765 16.3196 45.2114 16.3089 45.1096 16.2947C45.0101 16.2782 44.9048 16.2699 44.7935 16.2699C44.5284 16.2699 44.2916 16.3255 44.0833 16.4368C43.8773 16.5457 43.714 16.6972 43.5932 16.8913C43.4748 17.0831 43.4157 17.3021 43.4157 17.5483V21H42.5776ZM48.4192 21.1136C47.8936 21.1136 47.4403 20.9976 47.0591 20.7656C46.6803 20.5312 46.388 20.2045 46.182 19.7855C45.9784 19.3641 45.8766 18.8741 45.8766 18.3153C45.8766 17.7566 45.9784 17.2642 46.182 16.8381C46.388 16.4096 46.6744 16.0758 47.0414 15.8366C47.4107 15.5952 47.8416 15.4744 48.334 15.4744C48.6181 15.4744 48.8986 15.5218 49.1756 15.6165C49.4526 15.7112 49.7047 15.8651 49.932 16.0781C50.1593 16.2888 50.3404 16.5682 50.4753 16.9162C50.6103 17.2642 50.6777 17.6927 50.6777 18.2017V18.5568H46.4732V17.8324H49.8255C49.8255 17.5246 49.7639 17.25 49.6408 17.0085C49.5201 16.767 49.3472 16.5765 49.1223 16.4368C48.8998 16.2971 48.637 16.2273 48.334 16.2273C48.0002 16.2273 47.7114 16.3101 47.4675 16.4759C47.226 16.6392 47.0402 16.8523 46.91 17.1151C46.7798 17.3778 46.7147 17.6596 46.7147 17.9602V18.4432C46.7147 18.8551 46.7857 19.2043 46.9277 19.4908C47.0721 19.7749 47.2722 19.9915 47.5279 20.1406C47.7836 20.2874 48.0807 20.3608 48.4192 20.3608C48.6394 20.3608 48.8382 20.33 49.0158 20.2685C49.1957 20.2045 49.3508 20.1098 49.481 19.9844C49.6112 19.8565 49.7118 19.6979 49.7828 19.5085L50.5925 19.7358C50.5073 20.0104 50.3641 20.2519 50.1628 20.4602C49.9616 20.6662 49.713 20.8272 49.4171 20.9432C49.1212 21.0568 48.7885 21.1136 48.4192 21.1136ZM54.481 14.5085V13.7273H59.9355V14.5085H57.6486V21H56.7679V14.5085H54.481ZM62.0192 17.7188V21H61.1811V13.7273H62.0192V16.3977H62.0902C62.218 16.116 62.4098 15.8923 62.6655 15.7266C62.9235 15.5585 63.2668 15.4744 63.6953 15.4744C64.067 15.4744 64.3925 15.549 64.6719 15.6982C64.9512 15.8449 65.1679 16.071 65.3217 16.3764C65.478 16.6795 65.5561 17.0653 65.5561 17.5341V21H64.718V17.5909C64.718 17.1577 64.6056 16.8227 64.3807 16.5859C64.1581 16.3468 63.8492 16.2273 63.4538 16.2273C63.1792 16.2273 62.933 16.2853 62.7152 16.4013C62.4998 16.5173 62.3293 16.6866 62.2038 16.9091C62.0807 17.1316 62.0192 17.4015 62.0192 17.7188ZM69.3762 21.1136C68.8507 21.1136 68.3973 20.9976 68.0162 20.7656C67.6374 20.5312 67.345 20.2045 67.139 19.7855C66.9354 19.3641 66.8336 18.8741 66.8336 18.3153C66.8336 17.7566 66.9354 17.2642 67.139 16.8381C67.345 16.4096 67.6315 16.0758 67.9984 15.8366C68.3677 15.5952 68.7986 15.4744 69.291 15.4744C69.5751 15.4744 69.8556 15.5218 70.1326 15.6165C70.4096 15.7112 70.6618 15.8651 70.889 16.0781C71.1163 16.2888 71.2974 16.5682 71.4324 16.9162C71.5673 17.2642 71.6348 17.6927 71.6348 18.2017V18.5568H67.4302V17.8324H70.7825C70.7825 17.5246 70.7209 17.25 70.5978 17.0085C70.4771 16.767 70.3043 16.5765 70.0794 16.4368C69.8568 16.2971 69.594 16.2273 69.291 16.2273C68.9572 16.2273 68.6684 16.3101 68.4245 16.4759C68.1831 16.6392 67.9972 16.8523 67.867 17.1151C67.7368 17.3778 67.6717 17.6596 67.6717 17.9602V18.4432C67.6717 18.8551 67.7427 19.2043 67.8848 19.4908C68.0292 19.7749 68.2292 19.9915 68.4849 20.1406C68.7406 20.2874 69.0377 20.3608 69.3762 20.3608C69.5964 20.3608 69.7953 20.33 69.9728 20.2685C70.1528 20.2045 70.3078 20.1098 70.438 19.9844C70.5682 19.8565 70.6689 19.6979 70.7399 19.5085L71.5495 19.7358C71.4643 20.0104 71.3211 20.2519 71.1199 20.4602C70.9186 20.6662 70.67 20.8272 70.3741 20.9432C70.0782 21.0568 69.7456 21.1136 69.3762 21.1136ZM81.688 16H80.8074C80.7553 15.7467 80.6641 15.5241 80.5339 15.3324C80.4061 15.1406 80.2498 14.9796 80.0652 14.8494C79.8829 14.7169 79.6805 14.6174 79.4579 14.5511C79.2354 14.4848 79.0034 14.4517 78.7619 14.4517C78.3216 14.4517 77.9226 14.563 77.5652 14.7855C77.21 15.008 76.9271 15.3359 76.7164 15.7692C76.5081 16.2024 76.4039 16.7339 76.4039 17.3636C76.4039 17.9934 76.5081 18.5249 76.7164 18.9581C76.9271 19.3913 77.21 19.7192 77.5652 19.9418C77.9226 20.1643 78.3216 20.2756 78.7619 20.2756C79.0034 20.2756 79.2354 20.2424 79.4579 20.1761C79.6805 20.1098 79.8829 20.0116 80.0652 19.8814C80.2498 19.7488 80.4061 19.5866 80.5339 19.3949C80.6641 19.2008 80.7553 18.9782 80.8074 18.7273H81.688C81.6217 19.099 81.501 19.4316 81.3258 19.7251C81.1506 20.0187 80.9328 20.2685 80.6724 20.4744C80.412 20.678 80.1196 20.8331 79.7953 20.9396C79.4733 21.0462 79.1288 21.0994 78.7619 21.0994C78.1416 21.0994 77.59 20.9479 77.1071 20.6449C76.6241 20.3419 76.2441 19.911 75.9672 19.3523C75.6902 18.7936 75.5517 18.1307 75.5517 17.3636C75.5517 16.5966 75.6902 15.9337 75.9672 15.375C76.2441 14.8163 76.6241 14.3854 77.1071 14.0824C77.59 13.7794 78.1416 13.6278 78.7619 13.6278C79.1288 13.6278 79.4733 13.6811 79.7953 13.7876C80.1196 13.8942 80.412 14.0504 80.6724 14.2564C80.9328 14.46 81.1506 14.7086 81.3258 15.0021C81.501 15.2933 81.6217 15.6259 81.688 16ZM84.6026 21.1278C84.257 21.1278 83.9433 21.0627 83.6616 20.9325C83.3799 20.8 83.1561 20.6094 82.9904 20.3608C82.8247 20.1098 82.7418 19.8068 82.7418 19.4517C82.7418 19.1392 82.8034 18.8859 82.9265 18.6918C83.0496 18.4953 83.2141 18.3414 83.4201 18.2301C83.6261 18.1188 83.8533 18.036 84.1019 17.9815C84.3529 17.9247 84.605 17.8797 84.8583 17.8466C85.1897 17.804 85.4585 17.772 85.6644 17.7507C85.8728 17.727 86.0243 17.688 86.119 17.6335C86.216 17.5791 86.2646 17.4844 86.2646 17.3494V17.321C86.2646 16.9706 86.1687 16.6984 85.9769 16.5043C85.7875 16.3101 85.4999 16.2131 85.114 16.2131C84.7139 16.2131 84.4002 16.3007 84.1729 16.4759C83.9457 16.651 83.7859 16.8381 83.6935 17.0369L82.8981 16.7528C83.0401 16.4214 83.2295 16.1634 83.4663 15.9787C83.7054 15.7917 83.9658 15.6615 84.2475 15.5881C84.5316 15.5123 84.811 15.4744 85.0856 15.4744C85.2608 15.4744 85.462 15.4957 85.6893 15.5384C85.9189 15.5786 86.1403 15.6626 86.3533 15.7905C86.5688 15.9183 86.7475 16.1113 86.8896 16.3693C87.0316 16.6274 87.1026 16.973 87.1026 17.4062V21H86.2646V20.2614H86.2219C86.1651 20.3797 86.0704 20.5064 85.9379 20.6413C85.8053 20.7763 85.6289 20.8911 85.4087 20.9858C85.1886 21.0805 84.9199 21.1278 84.6026 21.1278ZM84.7305 20.375C85.0619 20.375 85.3413 20.3099 85.5685 20.1797C85.7982 20.0495 85.971 19.8814 86.087 19.6754C86.2054 19.4695 86.2646 19.2528 86.2646 19.0256V18.2585C86.229 18.3011 86.1509 18.3402 86.0302 18.3757C85.9118 18.4089 85.7745 18.4384 85.6183 18.4645C85.4644 18.4882 85.314 18.5095 85.1673 18.5284C85.0228 18.545 84.9057 18.5592 84.8157 18.571C84.5979 18.5994 84.3943 18.6456 84.2049 18.7095C84.0179 18.7711 83.8664 18.8646 83.7504 18.9901C83.6367 19.1132 83.5799 19.2812 83.5799 19.4943C83.5799 19.7855 83.6876 20.0057 83.9031 20.1548C84.1209 20.3016 84.3967 20.375 84.7305 20.375ZM89.4703 13.7273V21H88.6323V13.7273H89.4703ZM91.0053 21V15.5455H91.815V16.3977H91.886C91.9996 16.1065 92.1831 15.8804 92.4364 15.7195C92.6897 15.5561 92.994 15.4744 93.3491 15.4744C93.7089 15.4744 94.0084 15.5561 94.2475 15.7195C94.489 15.8804 94.6772 16.1065 94.8121 16.3977H94.869C95.0086 16.116 95.2182 15.8923 95.4975 15.7266C95.7769 15.5585 96.1119 15.4744 96.5025 15.4744C96.9902 15.4744 97.3891 15.6271 97.6992 15.9325C98.0094 16.2356 98.1644 16.7079 98.1644 17.3494V21H97.3263V17.3494C97.3263 16.947 97.2163 16.6593 96.9961 16.4865C96.7759 16.3137 96.5167 16.2273 96.2184 16.2273C95.8349 16.2273 95.5378 16.3433 95.3271 16.5753C95.1164 16.8049 95.011 17.0961 95.011 17.4489V21H94.1587V17.2642C94.1587 16.9541 94.0581 16.7043 93.8569 16.5149C93.6557 16.3232 93.3964 16.2273 93.0792 16.2273C92.8614 16.2273 92.6578 16.2853 92.4684 16.4013C92.2814 16.5173 92.1299 16.6783 92.0138 16.8842C91.9002 17.0878 91.8434 17.3234 91.8434 17.5909V21H91.0053Z" fill="white"/>
<path d="M273.261 8.72727V16H272.409L268.446 10.2898H268.375V16H267.494V8.72727H268.346L272.324 14.4517H272.395V8.72727H273.261ZM277.197 16.1136C276.671 16.1136 276.218 15.9976 275.836 15.7656C275.458 15.5312 275.165 15.2045 274.959 14.7855C274.756 14.3641 274.654 13.8741 274.654 13.3153C274.654 12.7566 274.756 12.2642 274.959 11.8381C275.165 11.4096 275.452 11.0758 275.819 10.8366C276.188 10.5952 276.619 10.4744 277.111 10.4744C277.395 10.4744 277.676 10.5218 277.953 10.6165C278.23 10.7112 278.482 10.8651 278.709 11.0781C278.937 11.2888 279.118 11.5682 279.253 11.9162C279.388 12.2642 279.455 12.6927 279.455 13.2017V13.5568H275.251V12.8324H278.603C278.603 12.5246 278.541 12.25 278.418 12.0085C278.297 11.767 278.125 11.5765 277.9 11.4368C277.677 11.2971 277.414 11.2273 277.111 11.2273C276.778 11.2273 276.489 11.3101 276.245 11.4759C276.003 11.6392 275.818 11.8523 275.687 12.1151C275.557 12.3778 275.492 12.6596 275.492 12.9602V13.4432C275.492 13.8551 275.563 14.2043 275.705 14.4908C275.849 14.7749 276.05 14.9915 276.305 15.1406C276.561 15.2874 276.858 15.3608 277.197 15.3608C277.417 15.3608 277.616 15.33 277.793 15.2685C277.973 15.2045 278.128 15.1098 278.258 14.9844C278.389 14.8565 278.489 14.6979 278.56 14.5085L279.37 14.7358C279.285 15.0104 279.141 15.2519 278.94 15.4602C278.739 15.6662 278.49 15.8272 278.194 15.9432C277.898 16.0568 277.566 16.1136 277.197 16.1136ZM281.966 16L280.304 10.5455H281.184L282.363 14.7216H282.42L283.585 10.5455H284.48L285.631 14.7074H285.687L286.866 10.5455H287.747L286.085 16H285.261L284.068 11.8097H283.983L282.79 16H281.966ZM295.758 10.5455C295.716 10.1856 295.543 9.90625 295.24 9.70739C294.937 9.50852 294.565 9.40909 294.125 9.40909C293.803 9.40909 293.521 9.46117 293.28 9.56534C293.041 9.66951 292.854 9.81274 292.719 9.99503C292.586 10.1773 292.52 10.3845 292.52 10.6165C292.52 10.8106 292.566 10.9775 292.658 11.1172C292.753 11.2545 292.874 11.3693 293.02 11.4616C293.167 11.5516 293.321 11.6262 293.482 11.6854C293.643 11.7422 293.791 11.7884 293.926 11.8239L294.665 12.0227C294.854 12.0724 295.065 12.1411 295.297 12.2287C295.531 12.3163 295.755 12.4358 295.968 12.5874C296.183 12.7365 296.361 12.9283 296.501 13.1626C296.64 13.397 296.71 13.6847 296.71 14.0256C296.71 14.4186 296.607 14.7737 296.401 15.0909C296.198 15.4081 295.899 15.6603 295.506 15.8473C295.116 16.0343 294.641 16.1278 294.082 16.1278C293.561 16.1278 293.11 16.0438 292.729 15.8757C292.35 15.7076 292.052 15.4732 291.834 15.1726C291.619 14.8719 291.497 14.5227 291.469 14.125H292.378C292.401 14.3996 292.494 14.6269 292.655 14.8068C292.818 14.9844 293.024 15.117 293.273 15.2045C293.523 15.2898 293.793 15.3324 294.082 15.3324C294.418 15.3324 294.72 15.2779 294.988 15.169C295.255 15.0578 295.467 14.9039 295.623 14.7074C295.78 14.5085 295.858 14.2765 295.858 14.0114C295.858 13.7699 295.79 13.5734 295.655 13.4219C295.52 13.2704 295.343 13.1473 295.123 13.0526C294.903 12.9579 294.665 12.875 294.409 12.804L293.514 12.5483C292.946 12.3849 292.496 12.1518 292.165 11.8487C291.833 11.5457 291.667 11.1491 291.667 10.6591C291.667 10.2519 291.778 9.89678 291.998 9.59375C292.22 9.28835 292.519 9.05161 292.893 8.88352C293.269 8.71307 293.689 8.62784 294.153 8.62784C294.622 8.62784 295.039 8.71188 295.403 8.87997C295.768 9.04569 296.057 9.27296 296.27 9.56179C296.485 9.85062 296.599 10.1785 296.611 10.5455H295.758ZM300.26 16.1136C299.768 16.1136 299.336 15.9964 298.964 15.7621C298.595 15.5277 298.306 15.1998 298.098 14.7784C297.892 14.357 297.789 13.8646 297.789 13.3011C297.789 12.733 297.892 12.237 298.098 11.8132C298.306 11.3894 298.595 11.0604 298.964 10.826C299.336 10.5916 299.768 10.4744 300.26 10.4744C300.753 10.4744 301.184 10.5916 301.553 10.826C301.925 11.0604 302.213 11.3894 302.419 11.8132C302.628 12.237 302.732 12.733 302.732 13.3011C302.732 13.8646 302.628 14.357 302.419 14.7784C302.213 15.1998 301.925 15.5277 301.553 15.7621C301.184 15.9964 300.753 16.1136 300.26 16.1136ZM300.26 15.3608C300.634 15.3608 300.942 15.2649 301.184 15.0732C301.425 14.8814 301.604 14.6293 301.72 14.3168C301.836 14.0043 301.894 13.6657 301.894 13.3011C301.894 12.9366 301.836 12.5968 301.72 12.282C301.604 11.9671 301.425 11.7126 301.184 11.5185C300.942 11.3243 300.634 11.2273 300.26 11.2273C299.886 11.2273 299.578 11.3243 299.337 11.5185C299.096 11.7126 298.917 11.9671 298.801 12.282C298.685 12.5968 298.627 12.9366 298.627 13.3011C298.627 13.6657 298.685 14.0043 298.801 14.3168C298.917 14.6293 299.096 14.8814 299.337 15.0732C299.578 15.2649 299.886 15.3608 300.26 15.3608ZM304.849 12.7188V16H304.011V10.5455H304.821V11.3977H304.892C305.02 11.1207 305.214 10.8982 305.474 10.7301C305.735 10.5597 306.071 10.4744 306.483 10.4744C306.852 10.4744 307.175 10.5502 307.452 10.7017C307.729 10.8509 307.945 11.0781 308.099 11.3835C308.252 11.6866 308.329 12.0701 308.329 12.5341V16H307.491V12.5909C307.491 12.1624 307.38 11.8286 307.157 11.5895C306.935 11.348 306.63 11.2273 306.241 11.2273C305.974 11.2273 305.735 11.2853 305.524 11.4013C305.316 11.5173 305.151 11.6866 305.03 11.9091C304.91 12.1316 304.849 12.4015 304.849 12.7188ZM312.062 18.1591C311.658 18.1591 311.31 18.107 311.018 18.0028C310.727 17.901 310.485 17.7661 310.29 17.598C310.099 17.4323 309.946 17.2547 309.832 17.0653L310.5 16.5966C310.576 16.696 310.672 16.8097 310.788 16.9375C310.904 17.0677 311.062 17.1802 311.263 17.2749C311.467 17.3719 311.733 17.4205 312.062 17.4205C312.503 17.4205 312.866 17.3139 313.153 17.1009C313.439 16.8878 313.582 16.554 313.582 16.0994V14.9915H313.511C313.45 15.0909 313.362 15.214 313.249 15.3608C313.137 15.5052 312.976 15.6342 312.766 15.7479C312.557 15.8591 312.276 15.9148 311.92 15.9148C311.48 15.9148 311.085 15.8106 310.734 15.6023C310.386 15.3939 310.111 15.0909 309.907 14.6932C309.706 14.2955 309.605 13.8125 309.605 13.2443C309.605 12.6856 309.703 12.1991 309.9 11.7848C310.096 11.3681 310.37 11.0462 310.72 10.8189C311.071 10.5893 311.475 10.4744 311.935 10.4744C312.29 10.4744 312.571 10.5336 312.78 10.652C312.991 10.768 313.152 10.9006 313.263 11.0497C313.376 11.1965 313.464 11.3172 313.526 11.4119H313.611V10.5455H314.42V16.1562C314.42 16.625 314.314 17.0062 314.101 17.2997C313.89 17.5956 313.606 17.8123 313.249 17.9496C312.893 18.0893 312.498 18.1591 312.062 18.1591ZM312.034 15.1619C312.37 15.1619 312.654 15.085 312.886 14.9311C313.118 14.7772 313.295 14.5559 313.415 14.267C313.536 13.9782 313.597 13.6326 313.597 13.2301C313.597 12.8371 313.537 12.4903 313.419 12.1896C313.301 11.889 313.125 11.6534 312.893 11.483C312.661 11.3125 312.375 11.2273 312.034 11.2273C311.679 11.2273 311.383 11.3172 311.146 11.4972C310.912 11.6771 310.736 11.9186 310.617 12.2216C310.501 12.5246 310.443 12.8608 310.443 13.2301C310.443 13.6089 310.502 13.9439 310.621 14.2351C310.741 14.5239 310.919 14.7512 311.153 14.9169C311.39 15.0803 311.684 15.1619 312.034 15.1619ZM237.568 31L235.181 22.2727H236.255L238.079 29.3807H238.164L240.022 22.2727H241.216L243.074 29.3807H243.159L244.983 22.2727H246.056L243.67 31H242.579L240.653 24.0455H240.585L238.659 31H237.568ZM248.243 27.0625V31H247.237V22.2727H248.243V25.4773H248.328C248.481 25.1392 248.711 24.8707 249.018 24.6719C249.328 24.4702 249.74 24.3693 250.254 24.3693C250.7 24.3693 251.091 24.4588 251.426 24.6378C251.761 24.8139 252.021 25.0852 252.206 25.4517C252.393 25.8153 252.487 26.2784 252.487 26.8409V31H251.481V26.9091C251.481 26.3892 251.346 25.9872 251.076 25.7031C250.809 25.4162 250.439 25.2727 249.964 25.2727C249.635 25.2727 249.339 25.3423 249.078 25.4815C248.819 25.6207 248.615 25.8239 248.464 26.0909C248.316 26.358 248.243 26.6818 248.243 27.0625ZM254.327 31V24.4545H255.332V31H254.327ZM254.838 23.3636C254.642 23.3636 254.473 23.2969 254.331 23.1634C254.192 23.0298 254.122 22.8693 254.122 22.6818C254.122 22.4943 254.192 22.3338 254.331 22.2003C254.473 22.0668 254.642 22 254.838 22C255.034 22 255.202 22.0668 255.341 22.2003C255.483 22.3338 255.554 22.4943 255.554 22.6818C255.554 22.8693 255.483 23.0298 255.341 23.1634C255.202 23.2969 255.034 23.3636 254.838 23.3636ZM260.021 24.4545V25.3068H256.629V24.4545H260.021ZM257.618 22.8864H258.623V29.125C258.623 29.4091 258.664 29.6222 258.747 29.7642C258.832 29.9034 258.94 29.9972 259.071 30.0455C259.204 30.0909 259.345 30.1136 259.493 30.1136C259.603 30.1136 259.694 30.108 259.765 30.0966C259.836 30.0824 259.893 30.071 259.936 30.0625L260.14 30.9659C260.072 30.9915 259.977 31.017 259.855 31.0426C259.733 31.071 259.578 31.0852 259.39 31.0852C259.106 31.0852 258.828 31.0241 258.555 30.902C258.285 30.7798 258.061 30.5938 257.882 30.3438C257.706 30.0938 257.618 29.7784 257.618 29.3977V22.8864ZM264.208 31.1364C263.577 31.1364 263.033 30.9972 262.576 30.7188C262.121 30.4375 261.77 30.0455 261.523 29.5426C261.279 29.0369 261.157 28.4489 261.157 27.7784C261.157 27.108 261.279 26.517 261.523 26.0057C261.77 25.4915 262.114 25.0909 262.554 24.804C262.998 24.5142 263.515 24.3693 264.105 24.3693C264.446 24.3693 264.783 24.4261 265.115 24.5398C265.448 24.6534 265.75 24.8381 266.023 25.0938C266.296 25.3466 266.513 25.6818 266.675 26.0994C266.837 26.517 266.918 27.0312 266.918 27.642V28.0682H261.873V27.1989H265.895C265.895 26.8295 265.821 26.5 265.674 26.2102C265.529 25.9205 265.321 25.6918 265.051 25.5241C264.784 25.3565 264.469 25.2727 264.105 25.2727C263.705 25.2727 263.358 25.3722 263.066 25.571C262.776 25.767 262.553 26.0227 262.397 26.3381C262.24 26.6534 262.162 26.9915 262.162 27.3523V27.9318C262.162 28.4261 262.248 28.8452 262.418 29.1889C262.591 29.5298 262.831 29.7898 263.138 29.9688C263.445 30.1449 263.801 30.233 264.208 30.233C264.472 30.233 264.711 30.196 264.924 30.1222C265.14 30.0455 265.326 29.9318 265.482 29.7812C265.638 29.6278 265.759 29.4375 265.844 29.2102L266.816 29.483C266.713 29.8125 266.542 30.1023 266.3 30.3523C266.059 30.5994 265.76 30.7926 265.405 30.9318C265.05 31.0682 264.651 31.1364 264.208 31.1364ZM276.732 24.4545C276.681 24.0227 276.473 23.6875 276.11 23.4489C275.746 23.2102 275.3 23.0909 274.772 23.0909C274.385 23.0909 274.047 23.1534 273.757 23.2784C273.471 23.4034 273.246 23.5753 273.084 23.794C272.925 24.0128 272.846 24.2614 272.846 24.5398C272.846 24.7727 272.901 24.973 273.012 25.1406C273.125 25.3054 273.27 25.4432 273.446 25.554C273.623 25.6619 273.807 25.7514 274 25.8224C274.194 25.8906 274.371 25.946 274.533 25.9886L275.419 26.2273C275.647 26.2869 275.9 26.3693 276.178 26.4744C276.459 26.5795 276.728 26.723 276.983 26.9048C277.242 27.0838 277.455 27.3139 277.623 27.5952C277.79 27.8764 277.874 28.2216 277.874 28.6307C277.874 29.1023 277.75 29.5284 277.503 29.9091C277.259 30.2898 276.901 30.5923 276.429 30.8168C275.961 31.0412 275.391 31.1534 274.721 31.1534C274.096 31.1534 273.554 31.0526 273.097 30.8509C272.642 30.6491 272.284 30.3679 272.023 30.0071C271.765 29.6463 271.618 29.2273 271.584 28.75H272.675C272.703 29.0795 272.814 29.3523 273.007 29.5682C273.203 29.7812 273.451 29.9403 273.749 30.0455C274.05 30.1477 274.374 30.1989 274.721 30.1989C275.124 30.1989 275.486 30.1335 275.807 30.0028C276.128 29.8693 276.382 29.6847 276.57 29.4489C276.757 29.2102 276.851 28.9318 276.851 28.6136C276.851 28.3239 276.77 28.0881 276.608 27.9062C276.446 27.7244 276.233 27.5767 275.969 27.4631C275.705 27.3494 275.419 27.25 275.113 27.1648L274.039 26.858C273.357 26.6619 272.817 26.3821 272.419 26.0185C272.022 25.6548 271.823 25.179 271.823 24.5909C271.823 24.1023 271.955 23.6761 272.219 23.3125C272.486 22.946 272.844 22.6619 273.293 22.4602C273.745 22.2557 274.249 22.1534 274.806 22.1534C275.368 22.1534 275.868 22.2543 276.306 22.456C276.743 22.6548 277.09 22.9276 277.346 23.2741C277.604 23.6207 277.74 24.0142 277.755 24.4545H276.732ZM282.322 24.4545V25.3068H278.93V24.4545H282.322ZM279.918 22.8864H280.924V29.125C280.924 29.4091 280.965 29.6222 281.048 29.7642C281.133 29.9034 281.241 29.9972 281.371 30.0455C281.505 30.0909 281.646 30.1136 281.793 30.1136C281.904 30.1136 281.995 30.108 282.066 30.0966C282.137 30.0824 282.194 30.071 282.237 30.0625L282.441 30.9659C282.373 30.9915 282.278 31.017 282.156 31.0426C282.033 31.071 281.879 31.0852 281.691 31.0852C281.407 31.0852 281.129 31.0241 280.856 30.902C280.586 30.7798 280.362 30.5938 280.183 30.3438C280.006 30.0938 279.918 29.7784 279.918 29.3977V22.8864ZM283.835 31V24.4545H284.84V31H283.835ZM284.346 23.3636C284.15 23.3636 283.981 23.2969 283.839 23.1634C283.7 23.0298 283.63 22.8693 283.63 22.6818C283.63 22.4943 283.7 22.3338 283.839 22.2003C283.981 22.0668 284.15 22 284.346 22C284.542 22 284.71 22.0668 284.849 22.2003C284.991 22.3338 285.062 22.4943 285.062 22.6818C285.062 22.8693 284.991 23.0298 284.849 23.1634C284.71 23.2969 284.542 23.3636 284.346 23.3636ZM287.688 22.2727V31H286.682V22.2727H287.688ZM290.536 22.2727V31H289.53V22.2727H290.536ZM293.383 27.0625V31H292.377V24.4545H293.349V25.4773H293.434C293.588 25.1449 293.821 24.8778 294.133 24.6761C294.446 24.4716 294.849 24.3693 295.343 24.3693C295.787 24.3693 296.174 24.4602 296.507 24.642C296.839 24.821 297.098 25.0938 297.282 25.4602C297.467 25.8239 297.559 26.2841 297.559 26.8409V31H296.554V26.9091C296.554 26.3949 296.42 25.9943 296.153 25.7074C295.886 25.4176 295.52 25.2727 295.054 25.2727C294.733 25.2727 294.446 25.3423 294.193 25.4815C293.943 25.6207 293.745 25.8239 293.6 26.0909C293.456 26.358 293.383 26.6818 293.383 27.0625ZM302.141 31.1364C301.511 31.1364 300.967 30.9972 300.509 30.7188C300.055 30.4375 299.704 30.0455 299.457 29.5426C299.212 29.0369 299.09 28.4489 299.09 27.7784C299.09 27.108 299.212 26.517 299.457 26.0057C299.704 25.4915 300.048 25.0909 300.488 24.804C300.931 24.5142 301.448 24.3693 302.039 24.3693C302.38 24.3693 302.717 24.4261 303.049 24.5398C303.381 24.6534 303.684 24.8381 303.957 25.0938C304.229 25.3466 304.447 25.6818 304.609 26.0994C304.771 26.517 304.852 27.0312 304.852 27.642V28.0682H299.806V27.1989H303.829C303.829 26.8295 303.755 26.5 303.607 26.2102C303.462 25.9205 303.255 25.6918 302.985 25.5241C302.718 25.3565 302.403 25.2727 302.039 25.2727C301.638 25.2727 301.292 25.3722 300.999 25.571C300.71 25.767 300.487 26.0227 300.33 26.3381C300.174 26.6534 300.096 26.9915 300.096 27.3523V27.9318C300.096 28.4261 300.181 28.8452 300.352 29.1889C300.525 29.5298 300.765 29.7898 301.072 29.9688C301.379 30.1449 301.735 30.233 302.141 30.233C302.406 30.233 302.644 30.196 302.857 30.1222C303.073 30.0455 303.259 29.9318 303.415 29.7812C303.572 29.6278 303.692 29.4375 303.778 29.2102L304.749 29.483C304.647 29.8125 304.475 30.1023 304.234 30.3523C303.992 30.5994 303.694 30.7926 303.339 30.9318C302.984 31.0682 302.585 31.1364 302.141 31.1364ZM311.018 25.9205L310.114 26.1761C310.058 26.0256 309.974 25.8793 309.863 25.7372C309.755 25.5923 309.607 25.473 309.42 25.3793C309.232 25.2855 308.992 25.2386 308.7 25.2386C308.299 25.2386 307.965 25.331 307.698 25.5156C307.434 25.6974 307.302 25.929 307.302 26.2102C307.302 26.4602 307.393 26.6577 307.575 26.8026C307.756 26.9474 308.04 27.0682 308.427 27.1648L309.398 27.4034C309.984 27.5455 310.42 27.7628 310.707 28.0554C310.994 28.3452 311.137 28.7187 311.137 29.1761C311.137 29.5511 311.029 29.8864 310.813 30.1818C310.6 30.4773 310.302 30.7102 309.918 30.8807C309.535 31.0511 309.089 31.1364 308.58 31.1364C307.913 31.1364 307.36 30.9915 306.923 30.7017C306.485 30.4119 306.208 29.9886 306.092 29.4318L307.046 29.1932C307.137 29.5455 307.309 29.8097 307.562 29.9858C307.817 30.1619 308.151 30.25 308.563 30.25C309.032 30.25 309.404 30.1506 309.68 29.9517C309.958 29.75 310.097 29.5085 310.097 29.2273C310.097 29 310.018 28.8097 309.859 28.6562C309.7 28.5 309.455 28.3835 309.126 28.3068L308.035 28.0511C307.435 27.9091 306.995 27.6889 306.714 27.3906C306.435 27.0895 306.296 26.7131 306.296 26.2614C306.296 25.892 306.4 25.5653 306.607 25.2812C306.817 24.9972 307.103 24.7741 307.464 24.6122C307.827 24.4503 308.239 24.3693 308.7 24.3693C309.347 24.3693 309.856 24.5114 310.225 24.7955C310.597 25.0795 310.862 25.4545 311.018 25.9205ZM317.287 25.9205L316.384 26.1761C316.327 26.0256 316.243 25.8793 316.132 25.7372C316.025 25.5923 315.877 25.473 315.689 25.3793C315.502 25.2855 315.262 25.2386 314.969 25.2386C314.569 25.2386 314.235 25.331 313.968 25.5156C313.703 25.6974 313.571 25.929 313.571 26.2102C313.571 26.4602 313.662 26.6577 313.844 26.8026C314.026 26.9474 314.31 27.0682 314.696 27.1648L315.668 27.4034C316.253 27.5455 316.689 27.7628 316.976 28.0554C317.263 28.3452 317.407 28.7187 317.407 29.1761C317.407 29.5511 317.299 29.8864 317.083 30.1818C316.87 30.4773 316.571 30.7102 316.188 30.8807C315.804 31.0511 315.358 31.1364 314.85 31.1364C314.182 31.1364 313.63 30.9915 313.192 30.7017C312.755 30.4119 312.478 29.9886 312.361 29.4318L313.316 29.1932C313.407 29.5455 313.578 29.8097 313.831 29.9858C314.087 30.1619 314.421 30.25 314.833 30.25C315.301 30.25 315.674 30.1506 315.949 29.9517C316.228 29.75 316.367 29.5085 316.367 29.2273C316.367 29 316.287 28.8097 316.128 28.6562C315.969 28.5 315.725 28.3835 315.395 28.3068L314.304 28.0511C313.705 27.9091 313.265 27.6889 312.983 27.3906C312.705 27.0895 312.566 26.7131 312.566 26.2614C312.566 25.892 312.669 25.5653 312.877 25.2812C313.087 24.9972 313.373 24.7741 313.733 24.6122C314.097 24.4503 314.509 24.3693 314.969 24.3693C315.617 24.3693 316.125 24.5114 316.495 24.7955C316.867 25.0795 317.131 25.4545 317.287 25.9205Z" fill="white"/>
<path d="M223.5 77.2414L234.325 101.81H212.675L223.5 77.2414Z" fill="#1864A3"/>
<path d="M223.5 65.1724L234.325 89.7414H212.675L223.5 65.1724Z" fill="#1864A3"/>
<path d="M223.5 60L232.521 78.1034H214.479L223.5 60Z" fill="#1864A3"/>
<rect x="221.417" y="97.931" width="4.16667" height="10.3448" fill="#1864A3"/>
<path d="M102.5 84.2414L113.325 108.81H91.6747L102.5 84.2414Z" fill="#1864A3"/>
<path d="M102.5 72.1724L113.325 96.7414H91.6747L102.5 72.1724Z" fill="#1864A3"/>
<path d="M102.5 67L111.521 85.1034H93.4789L102.5 67Z" fill="#1864A3"/>
<rect x="100.417" y="104.931" width="4.16667" height="10.3448" fill="#1864A3"/>
<path d="M43.5 83.069L51.7273 100.267H35.2728L43.5 83.069Z" fill="#1864A3"/>
<path d="M43.5 74.6207L51.7273 91.819H35.2728L43.5 74.6207Z" fill="#1864A3"/>
<path d="M43.5 71L50.356 83.6724H36.644L43.5 71Z" fill="#1864A3"/>
<rect x="41.9167" y="97.5517" width="3.16667" height="7.24138" fill="#1864A3"/>
<path d="M272.5 77.2414L283.325 101.81H261.675L272.5 77.2414Z" fill="#1864A3"/>
<path d="M272.5 65.1724L283.325 89.7414H261.675L272.5 65.1724Z" fill="#1864A3"/>
<path d="M272.5 60L281.521 78.1034H263.479L272.5 60Z" fill="#1864A3"/>
<rect x="270.417" y="97.931" width="4.16667" height="10.3448" fill="#1864A3"/>
<path d="M248 70.7931L255.794 90.4483H240.206L248 70.7931Z" fill="#4A9EC8"/>
<path d="M248 61.1379L255.794 80.7931H240.206L248 61.1379Z" fill="#4A9EC8"/>
<path d="M248 57L254.495 71.4828H241.505L248 57Z" fill="#4A9EC8"/>
<rect x="246.5" y="87.3448" width="3" height="8.27586" fill="#4A9EC8"/>
<path d="M71 83.7931L78.7942 103.448H63.2058L71 83.7931Z" fill="#4A9EC8"/>
<path d="M71 74.1379L78.7942 93.7931H63.2058L71 74.1379Z" fill="#4A9EC8"/>
<path d="M71 70L77.4952 84.4828H64.5048L71 70Z" fill="#4A9EC8"/>
<rect x="69.5" y="100.345" width="3" height="8.27586" fill="#4A9EC8"/>
<path d="M308 74.6897L318.392 104.172H297.608L308 74.6897Z" fill="#4A9EC8"/>
<path d="M308 60.2069L318.392 89.6896H297.608L308 60.2069Z" fill="#4A9EC8"/>
<path d="M308 54L316.66 75.7241H299.34L308 54Z" fill="#4A9EC8"/>
<rect x="306" y="99.5172" width="4" height="12.4138" fill="#4A9EC8"/>
<path d="M16 74.6897L26.3923 104.172H5.6077L16 74.6897Z" fill="#4A9EC8"/>
<path d="M16 60.2069L26.3923 89.6896H5.6077L16 60.2069Z" fill="#4A9EC8"/>
<path d="M16 54L24.6603 75.7241H7.33975L16 54Z" fill="#4A9EC8"/>
<rect x="14" y="99.5172" width="4" height="12.4138" fill="#4A9EC8"/>
<path d="M99.5 57L101.665 64.5H97.3349L99.5 57Z" fill="#1764A3"/>
<path d="M133.5 62L135.665 69.5H131.335L133.5 62Z" fill="#1764A3"/>
<path d="M192.5 58L194.665 65.5H190.335L192.5 58Z" fill="#4A9EC8"/>
<path d="M199 56L200.732 63.5H197.268L199 56Z" fill="#4A9EC8"/>
<path d="M219.5 48L221.665 56.25H217.335L219.5 48Z" fill="#4A9EC8"/>
<path d="M225.5 47L226.799 53H224.201L225.5 47Z" fill="#4A9EC8"/>
<path d="M251 46L253.598 53.5H248.402L251 46Z" fill="#4A9EC8"/>
<path d="M256.5 42L258.665 50.25H254.335L256.5 42Z" fill="#4A9EC8"/>
<path d="M277 43L278.732 50.5H275.268L277 43Z" fill="#4A9EC8"/>
<path d="M297 51L299.598 60.75H294.402L297 51Z" fill="#4A9EC8"/>
<path d="M316 46L317.732 54.25H314.268L316 46Z" fill="#4A9EC8"/>
<path d="M324.5 46L326.665 55.75H322.335L324.5 46Z" fill="#4A9EC8"/>
<path d="M320.5 54L323.531 62.25H317.469L320.5 54Z" fill="#4A9EC8"/>
<path d="M126 64.5L128.598 73.5H123.402L126 64.5Z" fill="#1764A3"/>
<path d="M91.5 50L95 61H88L91.5 50Z" fill="#1764A3"/>
<path d="M68 44L70.5981 53H65.4019L68 44Z" fill="#1764A3"/>
<path d="M61 49L63.5981 58H58.4019L61 49Z" fill="#1764A3"/>
<path d="M26 40L29.4641 52H22.5359L26 40Z" fill="#1764A3"/>
<path d="M9 43L11.5981 55.75H6.40192L9 43Z" fill="#1764A3"/>
<path d="M17 37L19.5981 45.25H14.4019L17 37Z" fill="#1764A3"/>
<circle cx="162" cy="29" r="20" fill="white"/>
</g>
<defs>
<clipPath id="clip0_9_2">
<rect width="334" height="118" rx="30" fill="white"/>
</clipPath>
</defs>
</svg>
